<svg width="144" height="16" viewBox="0 0 144 16" version="1.1" xmlns="http://www.w3.org/2000/svg" xmlns:xlink="http://www.w3.org/1999/xlink">
<title>Group</title>
<desc>Created using Figma</desc>
<g id="Canvas" transform="translate(-2830 2261)">
<g id="Group">
<g id="Vector">
<use xlink:href="#path0_fill" transform="translate(2830 -2260.94)" fill="#FFFFFF"/>
</g>
<g id="Vector">
<use xlink:href="#path1_fill" transform="translate(2843.11 -2260.94)" fill="#FFFFFF"/>
</g>
<g id="Vector">
<use xlink:href="#path2_fill" transform="translate(2930.12 -2260.95)" fill="#FFFFFF"/>
</g>
<g id="Vector">
<use xlink:href="#path3_fill" transform="translate(2891.9 -2260.94)" fill="#FFFFFF"/>
</g>
<g id="Vector">
<use xlink:href="#path4_fill" transform="translate(2879.8 -2260.94)" fill="#FFFFFF"/>
</g>
<g id="Vector">
<use xlink:href="#path5_fill" transform="translate(2964.08 -2260.94)" fill="#FFFFFF"/>
</g>
<g id="Vector">
<use xlink:href="#path6_fill" transform="translate(2856.66 -2260.94)" fill="#FFFFFF"/>
</g>
<g id="Vector">
<use xlink:href="#path7_fill" transform="translate(2911.71 -2260.94)" fill="#FFFFFF"/>
</g>
<g id="Vector">
<use xlink:href="#path8_fill" transform="translate(2955.97 -2261)" fill="#FFFFFF"/>
</g>
<g id="Vector">
<use xlink:href="#path9_fill" transform="translate(2867.66 -2260.94)" fill="#FFFFFF"/>
</g>
<g id="Vector">
<use xlink:href="#path10_fill" transform="translate(2897.34 -2260.95)" fill="#FFFFFF"/>
</g>
<g id="Vector">
<use xlink:href="#path11_fill" transform="translate(2942.88 -2260.94)" fill="#FFFFFF"/>
</g>
</g>
</g>
<defs>
<path id="path0_fill" d="M 3.45803 3.2305C 4.01565 2.75637 4.72302 2.47227 5.34764 2.47227C 7.58206 2.47227 8.00569 4.14867 8.08451 4.87116C 8.11012 5.10258 8.31307 5.27756 8.5574 5.27756C 8.5574 5.27756 8.5574 5.27756 8.55937 5.27756L 10.2125 5.27379C 10.3426 5.27379 10.4687 5.22111 10.5573 5.1308C 10.646 5.04049 10.6933 4.91631 10.6854 4.79213C 10.6322 3.98498 10.3682 2.46474 9.20566 1.3415C 8.28155 0.449674 6.98503 -1.79432e-09 5.34764 -1.79432e-09C 4.03733 -1.79432e-09 2.68761 0.532459 1.6433 1.46191C 0.598998 2.38948 0 3.59551 0 4.76579L 0 11.4996C 0 11.8665 0.0748749 13.1497 1.05219 14.2974C 1.98024 15.3886 3.36345 15.9418 5.16242 15.9418C 6.82543 15.9418 8.24608 15.3642 9.27068 14.271C 10.3445 13.1233 10.6066 11.8439 10.6618 11.4789C 10.6815 11.3491 10.6401 11.2174 10.5514 11.1177C 10.4608 11.018 10.3308 10.9615 10.1928 10.9615L 8.50814 10.9615C 8.2914 10.9615 8.10027 11.1026 8.04707 11.3039C 7.83427 12.113 7.17616 13.4676 5.16439 13.4676C 2.78022 13.4676 2.595 11.9606 2.595 11.4996L 2.595 4.76579C 2.59106 4.26532 2.91618 3.69335 3.45803 3.2305Z"/>
<path id="path1_fill" d="M 8.14953 9.69904C 8.97315 9.23996 9.61353 8.57015 10.0569 7.70655C 10.6775 6.49676 10.6953 5.31895 10.6953 5.18725C 10.6953 5.05742 10.6775 3.87773 10.0569 2.66794C 9.61747 1.81187 8.983 1.14582 8.16726 0.686741C 7.3594 0.231422 6.41165 0 5.34764 0L 0.474864 0C 0.212802 0 -4.81052e-07 0.2032 -4.81052e-07 0.453437L -4.81052e-07 15.3623C -4.81052e-07 15.6125 0.212802 15.8157 0.474864 15.8157L 2.1162 15.8157C 2.37826 15.8157 2.59106 15.6125 2.59106 15.3623L 2.59106 10.3745L 5.34764 10.3745C 5.42054 10.3745 5.48753 10.3726 5.55453 10.3688L 8.01948 15.5561C 8.09633 15.7179 8.26578 15.8214 8.45297 15.8214L 10.6421 15.8176C 10.8076 15.8176 10.9613 15.7348 11.046 15.6013C 11.1327 15.4677 11.1386 15.2983 11.0637 15.1591L 8.14953 9.69904ZM 8.10224 5.18348C 8.09633 5.64445 7.93082 7.90223 5.34567 7.90223L 2.58909 7.90223L 2.58909 2.47603L 5.34567 2.47603C 7.93082 2.47603 8.09633 4.72064 8.10224 5.17972L 8.10224 5.18348Z"/>
<path id="path2_fill" d="M 3.45804 3.23427C 4.01566 2.76013 4.72302 2.47603 5.34764 2.47603C 7.58206 2.47603 8.00569 4.15243 8.08451 4.87304C 8.11012 5.10446 8.31307 5.27944 8.5574 5.27944C 8.55937 5.27944 8.55937 5.27944 8.55937 5.27944L 9.4027 5.27379L 10.1987 5.27379C 10.3327 5.27379 10.4608 5.21923 10.5495 5.12516C 10.6401 5.03108 10.6834 4.90502 10.6716 4.77708C 10.6204 4.26156 10.4707 3.4751 10.0569 2.66794C 9.61747 1.81187 8.98301 1.14582 8.16727 0.686741C 7.35941 0.231422 6.40968 1.79432e-09 5.34764 1.79432e-09C 4.03733 1.79432e-09 2.68761 0.532459 1.64331 1.46191C 0.599 2.39136 3.84842e-06 3.59739 3.84842e-06 4.76767L 3.84842e-06 11.5015C 3.84842e-06 11.8684 0.0768471 13.1516 1.05219 14.2993C 1.98024 15.3905 3.36346 15.9437 5.16242 15.9437C 6.82543 15.9437 8.24608 15.3661 9.27069 14.2729C 10.3445 13.1252 10.6066 11.8458 10.6618 11.4808C 10.6815 11.351 10.6401 11.2193 10.5514 11.1196C 10.4608 11.0198 10.3308 10.9634 10.1928 10.9634L 8.50814 10.9634C 8.2914 10.9634 8.10027 11.1045 8.04707 11.3058C 7.83427 12.1149 7.17615 13.4695 5.16439 13.4695C 2.78022 13.4695 2.595 11.9625 2.595 11.5015L 2.595 4.76956C 2.59106 4.26908 2.91421 3.69711 3.45804 3.23427Z"/>
<path id="path3_fill" d="M 2.1162 -1.79432e-09L 0.474866 -1.79432e-09C 0.212804 -1.79432e-09 0 0.2032 0 0.453437L 0 15.3623C 0 15.6125 0.212804 15.8157 0.474866 15.8157L 2.1162 15.8157C 2.37826 15.8157 2.59106 15.6125 2.59106 15.3623L 2.59106 0.453437C 2.59106 0.201319 2.37826 -1.79432e-09 2.1162 -1.79432e-09Z"/>
<path id="path4_fill" d="M 9.44999 -1.79432e-09L 0.474865 -1.79432e-09C 0.212803 -1.79432e-09 -9.62104e-07 0.2032 -9.62104e-07 0.453437L -9.62104e-07 2.02071C -9.62104e-07 2.27095 0.212803 2.47415 0.474865 2.47415L 3.6669 2.47415L 3.6669 15.3623C 3.6669 15.6125 3.8797 15.8157 4.14176 15.8157L 5.78309 15.8157C 6.04515 15.8157 6.25796 15.6125 6.25796 15.3623L 6.25796 2.47415L 9.44999 2.47415C 9.71205 2.47415 9.92485 2.27095 9.92485 2.02071L 9.92485 0.453437C 9.92485 0.201319 9.71205 -1.79432e-09 9.44999 -1.79432e-09Z"/>
<path id="path5_fill" d="M 9.44999 -1.79432e-09L 0.474866 -1.79432e-09C 0.212804 -1.79432e-09 0 0.2032 0 0.453437L 0 2.02071C 0 2.27095 0.212804 2.47415 0.474866 2.47415L 3.6669 2.47415L 3.6669 15.3623C 3.6669 15.6125 3.8797 15.8157 4.14176 15.8157L 5.78309 15.8157C 6.04516 15.8157 6.25796 15.6125 6.25796 15.3623L 6.25796 2.47415L 9.44999 2.47415C 9.71205 2.47415 9.92486 2.27095 9.92486 2.02071L 9.92486 0.453437C 9.92486 0.201319 9.71205 -1.79432e-09 9.44999 -1.79432e-09Z"/>
<path id="path6_fill" d="M 8.74656 -1.79432e-09L 0.474864 -1.79432e-09C 0.212802 -1.79432e-09 4.81052e-07 0.2032 4.81052e-07 0.453437L 4.81052e-07 15.3623C 4.81052e-07 15.6125 0.212802 15.8157 0.474864 15.8157L 2.19698 15.8157L 2.57727 15.8214C 2.57924 15.8214 2.58121 15.8214 2.58515 15.8214L 8.74656 15.8214C 9.00862 15.8214 9.22142 15.6182 9.22142 15.3679L 9.22142 13.8007C 9.22142 13.5504 9.00862 13.3472 8.74656 13.3472L 2.59106 13.3472L 2.59106 9.29452L 7.64117 9.29452C 7.90323 9.29452 8.11603 9.09132 8.11603 8.84108L 8.11603 7.27381C 8.11603 7.02357 7.90323 6.82037 7.64117 6.82037L 2.59106 6.82037L 2.59106 2.47415L 8.74656 2.47415C 9.00862 2.47415 9.22142 2.27095 9.22142 2.02071L 9.22142 0.453437C 9.22142 0.201319 9.01059 -1.79432e-09 8.74656 -1.79432e-09Z"/>
<path id="path7_fill" d="M 8.74656 -1.79432e-09L 0.474866 -1.79432e-09C 0.212804 -1.79432e-09 1.79206e-14 0.2032 1.79206e-14 0.453437L 1.79206e-14 15.3623C 1.79206e-14 15.6125 0.212804 15.8157 0.474866 15.8157L 2.19698 15.8157L 2.57727 15.8214C 2.57924 15.8214 2.58121 15.8214 2.58515 15.8214L 8.74656 15.8214C 9.00862 15.8214 9.22142 15.6182 9.22142 15.3679L 9.22142 13.8007C 9.22142 13.5504 9.00862 13.3472 8.74656 13.3472L 2.59106 13.3472L 2.59106 9.29452L 7.64117 9.29452C 7.90323 9.29452 8.11603 9.09132 8.11603 8.84108L 8.11603 7.27381C 8.11603 7.02357 7.90323 6.82037 7.64117 6.82037L 2.59106 6.82037L 2.59106 2.47415L 8.74656 2.47415C 9.00862 2.47415 9.22142 2.27095 9.22142 2.02071L 9.22142 0.453437C 9.22142 0.201319 9.00862 -1.79432e-09 8.74656 -1.79432e-09Z"/>
<path id="path8_fill" d="M 8.74656 13.4056L 2.59107 13.4056L 2.59107 0.453437C 2.59107 0.2032 2.37826 0 2.1162 0L 0.47486 0C 0.212798 0 3.84842e-06 0.2032 3.84842e-06 0.453437L 3.84842e-06 15.4206C 3.84842e-06 15.6709 0.212798 15.8741 0.47486 15.8741L 2.19699 15.8741L 2.57727 15.8797C 2.57924 15.8797 2.58121 15.8797 2.58515 15.8797L 8.74656 15.8797C 9.00862 15.8797 9.22143 15.6765 9.22143 15.4263L 9.22143 13.859C 9.22143 13.6088 9.00862 13.4056 8.74656 13.4056Z"/>
<path id="path9_fill" d="M 7.68261 0.336785C 7.62743 0.137348 7.43828 -1.79432e-09 7.22351 -1.79432e-09L 4.61274 -1.79432e-09C 4.39797 -1.79432e-09 4.20881 0.13923 4.15364 0.336785L 0.015823 15.2456C -0.0216144 15.3811 0.00794051 15.526 0.0985784 15.6389C 0.189216 15.7499 0.327143 15.8157 0.474922 15.8157L 2.1734 15.8195C 2.1734 15.8195 2.1734 15.8195 2.17537 15.8195C 2.39014 15.8195 2.5793 15.6803 2.63447 15.4808L 5.91517 3.61056L 5.92699 3.61056L 9.20572 15.4752C 9.26089 15.6746 9.45005 15.8139 9.66482 15.8139L 11.3771 15.8139C 11.5249 15.8139 11.6628 15.748 11.7534 15.637C 11.8441 15.526 11.8736 15.3811 11.8362 15.2438L 7.68261 0.336785Z"/>
<path id="path10_fill" d="M 11.5498 0.00188148L 9.84932 1.79432e-09C 9.63455 1.79432e-09 9.44736 0.137348 9.39022 0.334904L 6.02873 12.2071L 6.01297 12.2071L 2.65149 0.334904C 2.59435 0.137348 2.40716 1.79432e-09 2.19239 1.79432e-09L 0.474208 0.00188148C 0.326429 0.00188148 0.186529 0.0677334 0.0978616 0.180622C 0.00722366 0.293511 -0.0223293 0.438385 0.0170785 0.573852L 4.25538 15.4846C 4.31252 15.6822 4.49971 15.8195 4.71448 15.8195L 7.32722 15.8195C 7.542 15.8195 7.72918 15.6822 7.78632 15.4846L 12.0069 0.573852C 12.0443 0.438385 12.0148 0.29163 11.9261 0.180622C 11.8355 0.0677334 11.6975 0.00188148 11.5498 0.00188148Z"/>
<path id="path11_fill" d="M 10.0431 0L 8.40174 0C 8.13968 0 7.92688 0.2032 7.92688 0.453437L 7.92688 11.2324C 7.92688 12.399 6.72888 13.3491 5.25897 13.3491C 3.78709 13.3491 2.59107 12.399 2.59107 11.2324L 2.59107 0.453437C 2.59107 0.2032 2.37826 0 2.1162 0L 0.47486 0C 0.212798 0 3.84842e-06 0.2032 3.84842e-06 0.453437L 3.84842e-06 11.2324C 3.84842e-06 13.763 2.36053 15.8233 5.26094 15.8233C 8.16136 15.8233 10.5219 13.763 10.5219 11.2324L 10.5219 0.453437C 10.5179 0.201319 10.3051 0 10.0431 0Z"/>
</defs>
</svg>
