<svg width="25" height="25" viewBox="0 0 25 25" xmlns="http://www.w3.org/2000/svg" xmlns:xlink="http://www.w3.org/1999/xlink"><title>Instagram</title><desc>Created using Figma</desc><use xlink:href="#a" fill="#FFF"/><use xlink:href="#b" transform="translate(7.04 7.03)" fill="#FFF"/><use xlink:href="#c" transform="translate(10.28 10.28)" fill="#FFF"/><defs><path id="a" fill-rule="evenodd" d="M12.5 0C5.596 0 0 5.597 0 12.5S5.596 25 12.5 25 25 19.403 25 12.5 19.404 0 12.5 0zM9.752 5.873c.71-.032.938-.04 2.748-.04 1.81 0 2.036.008 2.747.04.71.033 1.195.145 1.62.31.438.17.81.398 1.18.77.37.37.6.74.77 1.18.163.424.276.908.31 1.618.03.712.04.94.04 2.75s-.01 2.037-.04 2.748c-.034.71-.146 1.194-.31 1.618-.17.44-.4.81-.77 1.18-.37.372-.742.6-1.18.77-.424.165-.91.278-1.62.31-.71.033-.937.04-2.747.04-1.81 0-2.038-.007-2.75-.04-.71-.032-1.193-.145-1.617-.31a3.262 3.262 0 0 1-1.18-.77 3.267 3.267 0 0 1-.77-1.18c-.164-.424-.277-.91-.31-1.618-.032-.71-.04-.938-.04-2.748 0-1.81.01-2.038.04-2.75.032-.71.145-1.193.31-1.617.17-.44.4-.81.77-1.18.37-.372.742-.6 1.18-.77.424-.165.91-.277 1.62-.31z"/><path id="b" fill-rule="evenodd" d="M4.867 0h.598c1.78 0 1.99.006 2.694.04.65.028 1.002.137 1.237.228.31.12.533.265.766.5.233.232.378.454.5.765.09.235.2.588.23 1.238.03.704.037.915.037 2.694 0 1.78-.006 1.99-.038 2.693-.03.65-.14 1.003-.23 1.238-.12.31-.266.532-.5.766a2.068 2.068 0 0 1-.765.5c-.235.09-.588.2-1.238.23-.703.03-.915.038-2.695.038-1.78 0-1.99-.007-2.694-.04-.65-.03-1-.138-1.237-.23a2.062 2.062 0 0 1-.766-.498 2.068 2.068 0 0 1-.5-.766c-.09-.235-.2-.587-.23-1.237C.008 7.454 0 7.243 0 5.462c0-1.78.006-1.99.038-2.693.03-.65.14-1.003.23-1.24.12-.31.265-.532.5-.765.232-.234.454-.378.765-.5.236-.09.588-.2 1.238-.23C3.387.01 3.626 0 4.868 0zm4.157 1.107a.8.8 0 1 0 .8.8.8.8 0 0 0-.8-.8zM2.042 5.465a3.424 3.424 0 1 1 6.847 0 3.424 3.424 0 0 1-6.85 0z"/><path id="c" fill-rule="evenodd" d="M2.222 0a2.222 2.222 0 1 1 0 4.445 2.222 2.222 0 0 1 0-4.445z"/></defs></svg>