<svg width="92" height="113" viewBox="0 0 92 113" version="1.1" xmlns="http://www.w3.org/2000/svg" xmlns:xlink="http://www.w3.org/1999/xlink">
<title>Vector</title>
<desc>Created using Figma</desc>
<g id="Canvas" transform="translate(-1798 4628)">
<g id="Vector">
<use xlink:href="#path0_fill" transform="translate(1798 -4628)" fill="#FED22E"/>
<use xlink:href="#path1_fill" transform="translate(1798 -4628)" fill="#FED22E"/>
</g>
</g>
<defs>
<path id="path0_fill" fill-rule="evenodd" d="M 70.3308 62.9911C 70.7919 77.5179 58.8884 77.8519 52.6852 82.5689C 51.5955 83.195 50.3381 84.3221 49.416 85.3657C 48.913 85.9501 48.452 86.5345 48.0748 87.2024C 47.1946 88.7887 47.1108 89.6236 47.1108 91.3351C 48.3682 87.9956 53.2301 84.6561 56.3736 83.1116C 60.2297 81.1914 64.5048 79.6886 67.6903 77.0587C 70.5404 74.7211 73.3905 70.8807 73.5581 65.6627C 73.6839 62.031 72.678 58.0654 71.5463 54.7259C 71.2529 53.891 68.8638 47.4625 67.9417 47.0451C 67.7741 47.5877 67.6483 48.7148 67.6064 49.8001C 67.4807 54.3919 70.1631 58.4828 70.3308 62.9911ZM 34.9978 9.4758C 34.8301 10.4777 34.0338 11.2708 32.9859 11.563C 33.7404 14.1511 38.267 16.8644 40.9076 16.8227C 42.2488 14.3181 43.8415 11.1873 44.6798 7.97303C 44.9732 6.80421 45.1827 5.76062 45.2247 5.09272C 41.9135 4.09088 42.5841 0.166974 45.8953 0L 46.0629 0C 49.3741 0.166974 50.0447 4.09088 46.7335 5.09272C 46.7754 5.76062 46.985 6.80421 47.2784 7.97303C 48.0748 11.1038 49.6256 14.2763 50.9668 16.7809C 53.775 16.7392 58.2178 14.3598 58.9723 11.563C 58.134 11.3125 57.4634 10.7281 57.17 9.97673C 56.9604 9.60103 56.8347 9.10011 56.9604 8.43221C 57.17 7.09642 58.5531 6.26154 60.062 6.30329C 61.5709 6.34503 62.8702 7.30513 62.8283 8.89139C 62.8283 9.1836 62.7864 9.39232 62.7445 9.60103C 62.493 10.7281 61.4452 11.6047 60.1878 11.6882C 59.9363 15.4451 61.99 19.0768 64.8821 19.87C 66.8939 18.242 69.283 15.6956 70.9595 13.6084C 71.5044 12.8988 72.3007 12.1057 72.8037 11.229C 72.8037 11.1873 72.7618 11.1873 72.7618 11.1455C 72.3846 10.8533 72.0912 10.4359 71.9235 10.0185C 71.672 9.60103 71.5463 9.05837 71.8397 8.26524C 72.175 7.34688 73.139 6.59549 74.4383 6.51201C 76.0729 6.42852 77.0789 7.30513 77.4561 8.34873C 78.1686 10.2272 76.4502 11.7717 74.6479 11.7717C 74.5221 11.7717 74.3964 11.7717 74.2707 11.73C 73.3905 13.6084 72.7618 15.6539 72.0073 17.6158C 71.2948 20.2457 69.4506 25.7141 69.4087 28.3857C 70.7499 26.5907 75.9053 26.8829 74.0611 28.5109C 71.9654 30.3476 72.7618 33.1862 73.5162 35.4821C 76.4082 42.6202 85.4616 52.43 83.1982 63.5338C 83.0306 64.4104 82.7791 65.2453 82.4438 65.9967C 82.0666 66.8316 81.8151 67.5412 81.1864 68.0421L 81.4798 61.9893C 81.3121 56.2287 78.8811 51.1777 76.5759 47.3373C 74.8155 44.3735 72.678 41.2844 71.0014 38.4041C 69.9955 36.6926 69.241 35.1064 68.5285 33.2279L 66.9358 33.2279C 66.4748 35.9413 73.2228 45.2083 75.1089 48.7566C 77.8752 54.058 79.3422 58.6081 79.3841 64.8279C 79.426 70.0458 77.6657 74.6794 73.8934 78.3945C 67.0196 85.7831 58.3855 84.1552 47.3622 96.0521C 47.6556 93.5475 47.6556 93.2135 48.8711 91.0011C 49.7513 89.3731 51.6793 87.0355 58.0082 84.1969C 60.3973 83.1533 63.1217 82.0262 65.5946 80.7322C 73.5581 76.4743 77.2884 68.543 75.0251 59.5682C 74.1449 56.1869 73.3486 53.6823 71.9235 50.8437C 70.0793 47.1286 67.7741 43.7473 65.8042 40.1574C 65.0497 38.7798 64.2953 37.444 64.1276 37.1936C 63.6246 36.0665 63.1636 35.1064 62.8283 33.9376C 62.5349 33.0192 62.0319 30.932 61.99 30.0554C 61.4451 29.5962 55.6611 28.4692 54.4456 28.3022C 51.4278 27.9682 49.0807 27.5925 45.8953 27.5925C 42.7518 27.5925 40.4046 27.9682 37.3449 28.3022C 36.1294 28.4274 30.3454 29.5962 29.8005 30.0554C 29.7586 30.932 29.2556 33.0192 28.9622 33.9376C 28.6269 35.1064 28.124 36.0665 27.6629 37.1936C 27.4953 37.444 26.7408 38.7798 25.9864 40.1574C 23.9745 43.7473 21.7112 47.1703 19.867 50.8437C 18.442 53.6823 17.6456 56.1869 16.7654 59.5682C 14.4602 68.543 18.2324 76.4743 26.1959 80.7322C 28.6688 82.068 31.4351 83.1533 33.7823 84.1969C 40.1112 87.0355 42.0392 89.3731 42.9194 91.0011C 44.1349 93.2135 44.1349 93.5475 44.4283 96.0521C 33.4051 84.1552 24.729 85.8249 17.8971 78.3945C 14.1249 74.6794 12.3645 70.0458 12.4064 64.8279C 12.4483 58.6081 13.9153 54.058 16.6816 48.7566C 18.5258 45.2083 25.3158 35.983 24.8547 33.2279L 23.262 33.2279C 22.5495 35.1064 21.795 36.6926 20.7891 38.4041C 19.1126 41.2844 16.975 44.3735 15.2146 47.3373C 12.9094 51.1777 10.5203 56.2287 10.3108 61.9893L 10.6041 68.0421C 9.97545 67.5829 9.72397 66.8316 9.34674 65.9967C 9.01144 65.2453 8.80187 64.4104 8.5923 63.5338C 6.49663 52.4717 15.5499 42.6202 18.442 35.4821C 19.1545 33.1862 19.9928 30.3059 17.8971 28.5109C 16.0529 26.9246 21.2082 26.5907 22.5495 28.3857C 22.5076 25.7141 20.6634 20.2457 19.9508 17.6158C 19.1964 15.6121 18.5677 13.6084 17.6875 11.73C 17.5618 11.73 17.436 11.7717 17.3103 11.7717C 15.4661 11.7717 13.7896 10.2272 14.5021 8.34873C 14.8793 7.34688 15.8852 6.42852 17.5199 6.51201C 18.8611 6.59549 19.7832 7.34688 20.1185 8.26524C 20.4119 9.05837 20.2862 9.60103 20.0347 10.0185C 19.867 10.4776 19.5736 10.8533 19.1964 11.1455C 19.1964 11.1873 19.1545 11.1873 19.1545 11.229C 19.6575 12.1057 20.4119 12.8988 20.9987 13.6084C 22.6333 15.6956 25.0224 18.242 27.0761 19.87C 29.9682 19.0768 32.0219 15.4451 31.7704 11.6882C 30.8483 11.6047 30.052 11.1038 29.5909 10.3942C 29.2975 10.0602 29.1299 9.60103 29.1299 8.89139C 29.1299 7.30513 30.3873 6.38678 31.8962 6.30329C 33.4051 6.26154 34.7882 7.05467 34.9978 8.43221C 35.0816 8.84965 35.0397 9.1836 34.9978 9.4758ZM 37.9317 20.3291C 43.129 20.3291 48.8711 20.3291 54.1103 20.3709C 55.6192 20.9553 61.7805 23.4182 62.954 23.4599C 64.5467 23.5017 65.5527 23.0425 66.9777 23.0425L 65.3012 27.0499C 60.1458 25.7976 54.3199 24.1278 46.021 24.2113C 37.7221 24.1278 31.8962 25.7976 26.7408 27.0499L 25.0643 23.0425C 26.4474 23.0425 27.4953 23.5017 29.088 23.4599C 30.2196 23.3764 36.5486 20.8718 37.9317 20.3291ZM 21.6693 62.9911C 21.2082 77.5179 33.1117 77.8519 39.3149 82.5689C 40.4046 83.195 41.662 84.3221 42.5841 85.3657C 43.0871 85.9501 43.5481 86.5345 43.9253 87.2024C 44.8055 88.7887 44.8893 89.6236 44.8893 91.3351C 43.6319 87.9956 38.77 84.6561 35.6265 83.1116C 31.7704 81.1914 27.4953 79.6886 24.3098 77.0587C 21.4597 74.7211 18.6096 70.8807 18.442 65.6627C 18.3162 62.031 19.3221 58.0654 20.4538 54.7259C 20.7472 53.891 23.1363 47.4625 24.0584 47.0451C 24.226 47.5877 24.3518 48.7148 24.3937 49.8001C 24.4775 54.3919 21.795 58.4828 21.6693 62.9911ZM 31.016 40.7C 30.4711 40.1991 29.6748 39.573 28.0401 39.406C 28.2916 38.9051 28.6269 38.5294 29.2137 38.2372C 31.477 36.8179 34.9139 37.1101 37.4288 37.611L 39.4406 38.1537C 39.6921 39.4895 39.6921 42.1611 39.3568 43.5803C 38.4766 47.7965 36.4228 49.4245 34.2433 52.8474C 31.9381 56.4791 30.6807 63.3668 34.0757 66.6228C 38.6023 63.1164 42.5003 61.9475 44.0511 61.3214C 44.3864 58.8168 43.2547 56.8966 42.2069 55.3938C 40.195 52.597 38.8119 53.1814 37.0934 52.5552C 37.806 50.8855 40.3627 49.9254 42.1231 50.0089C 44.0511 50.468 44.8893 50.8855 46.021 50.8855C 47.1527 50.8855 47.9909 50.4263 49.919 50.0089C 51.6793 49.9254 54.236 50.9272 54.9486 52.5552C 53.1882 53.1814 51.847 52.597 49.8351 55.3938C 48.7454 56.8548 47.6137 58.8168 47.9909 61.3214C 49.5417 61.9475 53.4397 63.1164 57.9663 66.6228C 61.3194 63.3668 60.1039 56.4791 57.7987 52.8474C 55.6192 49.4245 53.5654 47.8382 52.6852 43.5803C 52.3918 42.1611 52.3499 39.4895 52.6014 38.1537L 54.6133 37.611C 57.17 37.1101 60.565 36.8179 62.8283 38.2372C 63.4151 38.4876 63.7504 38.8633 64.0019 39.406C 62.3673 39.573 61.529 40.1991 61.026 40.7C 60.0201 41.6184 59.7686 41.5767 59.1399 41.5767C 53.6073 41.7019 56.0802 39.8652 54.278 39.1138C 53.2301 40.9505 55.0743 45.584 56.1641 47.2955C 57.4634 49.3827 58.9303 50.9272 60.1878 52.8057C 62.6187 56.4374 64.0438 61.1544 63.3313 65.4957C 62.8702 68.3343 60.8584 71.4233 58.8046 72.4669C 58.134 72.0912 54.5294 67.4994 52.1823 65.9549C 50.0447 64.5774 48.0329 64.0347 46.1467 63.993L 45.9791 63.993C 44.093 63.993 42.0811 64.5356 39.9436 65.9549C 37.5964 67.4994 33.9918 72.0912 33.3212 72.4669C 31.2675 71.4233 29.2556 68.3343 28.7946 65.4957C 28.0821 61.1544 29.549 56.4791 31.9381 52.8057C 33.1955 50.9272 34.6625 49.4245 35.9618 47.2955C 37.0096 45.584 38.8538 40.9505 37.8479 39.1138C 36.0456 39.8652 38.5185 41.7019 32.9859 41.5767C 32.2734 41.5767 32.0219 41.6184 31.016 40.7ZM 39.1891 49.0488C 40.6142 45.0831 40.9495 45.918 41.4524 40.6166C 41.4944 40.6583 41.5363 40.7 41.5363 40.7418C 41.9973 41.4097 42.0392 41.7019 42.2488 42.5368C 42.5422 43.8308 42.5003 44.8744 42.2907 45.7093C 41.8716 47.379 40.9495 48.7566 39.1891 49.0488ZM 46.1048 35.816L 45.8953 35.816C 43.0871 35.7325 42.3745 33.5201 39.6921 32.2678C 39.0215 31.9756 37.7641 31.6417 37.3449 31.3495C 38.267 30.8485 41.0752 30.9738 42.1231 31.3495C 43.5062 31.8921 44.2187 33.0192 45.9791 33.0192L 46.0629 33.0192C 47.8233 32.9775 48.5358 31.8921 49.919 31.3495C 50.9249 30.932 53.775 30.8068 54.6971 31.3495C 54.236 31.6417 52.9786 31.9339 52.3499 32.2678C 49.5836 33.5201 48.8711 35.7743 46.1048 35.816ZM 46.1048 82.5271C 46.0629 82.5271 46.021 82.4854 46.021 82.4437C 45.9791 82.4854 45.9372 82.4854 45.9372 82.5271L 45.9372 82.3602C 45.518 81.8593 45.0989 80.44 43.9672 79.1877C 42.4584 77.5179 39.3987 76.3074 37.4707 75.1803C 35.4588 73.9697 35.2912 73.2601 35.9618 70.7972C 37.1354 71.1729 37.2611 73.3018 39.4406 73.594C 41.159 73.8027 43.4224 72.3 45.4761 72.0912C 45.6438 72.0912 45.8534 72.0495 46.021 72.0495C 46.1887 72.0495 46.3982 72.0495 46.5659 72.0912C 48.6196 72.3 50.883 73.8027 52.6014 73.594C 54.7809 73.3436 54.9486 71.1729 56.0802 70.7972C 56.7508 73.2601 56.5832 73.9697 54.5713 75.1803C 52.6852 76.3491 49.5836 77.5179 48.0748 79.1877C 46.9431 80.44 46.524 81.8593 46.1048 82.3602L 46.1048 82.5271ZM 28.124 57.1053C 27.3276 59.7351 26.657 62.8242 27.0342 65.621C 27.4953 68.9605 30.0101 71.9243 32.0638 73.5523C 37.0515 77.5597 45.518 78.4363 44.9732 86.9102C 44.596 86.5345 44.3445 85.7832 43.7996 84.99C 43.3385 84.2804 43.0871 83.9047 42.5422 83.2368C 41.4944 81.9427 40.8237 81.3583 39.5244 80.3147C 34.7044 77.1005 26.9085 75.8899 24.4356 67.6247C 21.9627 59.3594 29.088 52.9727 25.2319 45.8345C 24.8547 45.1666 24.4775 45.0831 25.19 44.9161C 27.0342 45.584 28.0821 46.4189 28.8365 48.2556C 29.2556 49.2992 29.2556 50.1341 29.2137 51.5116C 29.1299 53.891 28.7946 54.9346 28.124 57.1053ZM 52.811 49.0488C 51.3859 45.0831 51.0506 45.918 50.5477 40.6166C 50.5057 40.6583 50.4638 40.7 50.4638 40.7418C 50.0028 41.4097 49.9609 41.7019 49.7513 42.5368C 49.4579 43.8308 49.4998 44.8744 49.7094 45.7093C 50.1285 47.379 51.0506 48.7566 52.811 49.0488ZM 63.8761 57.1053C 64.6725 59.7351 65.3431 62.8242 64.9659 65.621C 64.5048 68.9605 61.99 71.9243 59.9363 73.5523C 54.9486 77.5597 46.4821 78.4363 47.0269 86.9102C 47.4041 86.5345 47.6556 85.7832 48.2005 84.99C 48.6616 84.2804 48.913 83.9047 49.4579 83.2368C 50.5057 81.9427 51.1764 81.3583 52.4757 80.3147C 57.2957 77.1005 65.0916 75.8899 67.5645 67.6247C 70.0374 59.3594 62.9121 52.9727 66.7682 45.8345C 67.1454 45.1666 67.5226 45.0831 66.8101 44.9161C 64.9659 45.584 63.918 46.4189 63.1636 48.2556C 62.7445 49.2992 62.7445 50.1341 62.7864 51.5116C 62.8283 53.891 63.2055 54.9346 63.8761 57.1053Z"/>
<path id="path1_fill" fill-rule="evenodd" d="M 10.3526 102.648L 9.0533 105.194L 8.84374 105.069C 8.84374 105.027 8.84374 104.985 8.84374 104.943C 8.84374 104.777 8.67608 104.568 8.38269 104.359C 7.46059 103.691 6.32893 103.399 5.07153 103.399C 4.52665 103.399 4.02369 103.482 3.60456 103.608C 3.31116 103.733 3.05968 103.858 2.85011 104.067C 2.64055 104.276 2.55672 104.526 2.55672 104.735C 2.55672 105.152 2.8082 105.403 3.31116 105.57C 3.56264 105.653 4.10752 105.737 4.94579 105.82L 6.20319 105.945C 6.95763 106.029 7.54442 106.112 8.00547 106.279C 8.46651 106.405 8.84374 106.613 9.22096 106.864C 9.59818 107.114 9.84966 107.448 10.0592 107.866C 10.2688 108.283 10.3526 108.742 10.3526 109.201C 10.3526 109.953 10.1011 110.621 9.59818 111.205C 9.13713 111.748 8.46651 112.123 7.54442 112.374C 6.83189 112.583 6.11936 112.666 5.32301 112.666C 3.89795 112.666 2.47289 112.332 1.08975 111.664C 0.796355 111.539 0.628702 111.455 0.544875 111.455C 0.461048 111.455 0.377221 111.497 0.209567 111.622L 0 111.497L 1.17358 108.867L 1.38314 108.993C 1.38314 109.034 1.38314 109.076 1.38314 109.076C 1.38314 109.327 1.50888 109.535 1.71845 109.744C 2.05376 110.036 2.59863 110.328 3.31116 110.537C 4.02369 110.746 4.69431 110.871 5.36492 110.871C 6.07745 110.871 6.66424 110.746 7.1672 110.495C 7.46059 110.37 7.67016 110.203 7.83781 109.953C 8.00547 109.744 8.08929 109.494 8.08929 109.285C 8.08929 108.909 7.87973 108.659 7.50251 108.533C 7.25102 108.408 6.70615 108.325 5.86788 108.241L 4.65239 108.116C 3.85604 108.033 3.26925 107.949 2.93394 107.866C 2.59863 107.782 2.26333 107.657 1.92802 107.49C 1.46697 107.239 1.08975 106.905 0.796355 106.405C 0.544875 105.987 0.419134 105.486 0.419134 104.943C 0.419134 104.025 0.712528 103.274 1.34123 102.689C 2.1795 101.896 3.39499 101.521 5.07153 101.521C 5.74214 101.521 6.41276 101.604 6.99954 101.729C 7.58633 101.854 8.34077 102.105 9.22096 102.481C 9.51435 102.606 9.72392 102.648 9.76583 102.648C 9.89157 102.648 10.0173 102.606 10.1431 102.481L 10.3526 102.648ZM 16.7654 103.482C 18.1904 103.482 19.364 103.858 20.2861 104.568C 21.4178 105.444 21.9626 106.613 21.9626 108.158C 21.9626 109.619 21.4178 110.746 20.2861 111.622C 19.364 112.332 18.1904 112.708 16.7654 112.708C 15.3403 112.708 14.2087 112.332 13.2446 111.622C 12.113 110.746 11.5681 109.577 11.5681 108.074C 11.5681 106.571 12.113 105.403 13.2446 104.526C 14.2087 103.858 15.3822 103.482 16.7654 103.482ZM 16.7654 105.152C 15.8433 105.152 15.0888 105.444 14.544 106.029C 13.9991 106.571 13.7476 107.281 13.7476 108.074C 13.7476 108.909 13.9991 109.577 14.544 110.12C 15.1308 110.704 15.8852 110.996 16.8073 110.996C 17.7294 110.996 18.4838 110.704 19.0287 110.12C 19.5736 109.577 19.8251 108.909 19.8251 108.116C 19.8251 107.239 19.5736 106.53 19.0287 106.029C 18.4419 105.444 17.6875 105.152 16.7654 105.152ZM 25.9444 110.913L 30.8902 110.913C 31.0579 110.913 31.1836 110.871 31.2674 110.788C 31.3513 110.704 31.4351 110.579 31.477 110.412L 31.6866 110.412L 31.6866 113L 31.477 113C 31.4351 112.791 31.3513 112.666 31.2674 112.624C 31.1836 112.541 31.0579 112.499 30.8902 112.499L 23.3458 112.499L 23.3458 112.29C 23.5134 112.249 23.6392 112.165 23.723 112.082C 23.8068 111.998 23.8487 111.873 23.8487 111.706L 23.8487 104.484C 23.8487 104.317 23.8068 104.192 23.723 104.109C 23.6392 104.025 23.5134 103.942 23.3458 103.9L 23.3458 103.691L 26.4893 103.691L 26.4893 103.9C 26.2797 103.942 26.154 104.025 26.1121 104.109C 26.0282 104.192 25.9863 104.317 25.9863 104.484L 25.9863 110.913L 25.9444 110.913ZM 37.6383 103.482C 39.0633 103.482 40.2369 103.858 41.159 104.568C 42.2907 105.444 42.8355 106.613 42.8355 108.158C 42.8355 109.619 42.2907 110.746 41.159 111.622C 40.2369 112.332 39.0633 112.708 37.6383 112.708C 36.2132 112.708 35.0816 112.332 34.1175 111.622C 32.9859 110.746 32.441 109.577 32.441 108.074C 32.441 106.571 32.9859 105.403 34.1175 104.526C 35.0816 103.858 36.2132 103.482 37.6383 103.482ZM 37.6383 105.152C 36.7162 105.152 35.9617 105.444 35.4169 106.029C 34.872 106.571 34.6205 107.281 34.6205 108.074C 34.6205 108.909 34.872 109.577 35.4169 110.12C 36.0036 110.704 36.7581 110.996 37.6802 110.996C 38.6023 110.996 39.3567 110.704 39.9016 110.12C 40.4465 109.577 40.6979 108.909 40.6979 108.116C 40.6979 107.239 40.4465 106.53 39.9016 106.029C 39.3148 105.444 38.5604 105.152 37.6383 105.152ZM 58.8884 108.826L 60.3973 111.08L 60.1877 111.205C 60.02 111.08 59.9362 110.996 59.8105 110.996C 59.6847 110.996 59.4333 111.122 59.0141 111.372C 58.092 111.873 57.3376 112.249 56.7089 112.416C 56.0802 112.583 55.3677 112.708 54.4875 112.708C 52.769 112.708 51.3859 112.29 50.2961 111.497C 49.6674 111.038 49.1645 110.454 48.7872 109.744C 48.3681 108.951 48.1585 108.074 48.1585 107.114C 48.1585 105.82 48.5358 104.693 49.2902 103.733C 50.4219 102.272 52.1822 101.562 54.5294 101.562C 55.3677 101.562 56.1221 101.646 56.7508 101.813C 57.3795 101.98 58.1339 102.355 59.056 102.856C 59.4752 103.107 59.7686 103.232 59.8524 103.232C 59.9362 103.232 60.062 103.149 60.2296 103.023L 60.4392 103.149L 58.9303 105.403L 58.7207 105.277C 58.7207 105.194 58.7207 105.11 58.7207 105.069C 58.7207 104.902 58.6369 104.777 58.5112 104.651C 58.3854 104.526 58.1339 104.359 57.7986 104.15C 56.8765 103.608 55.8706 103.357 54.8228 103.357C 53.5654 103.357 52.6014 103.649 51.8469 104.276C 50.9667 104.985 50.5476 105.945 50.5476 107.114C 50.5476 108.283 50.9667 109.201 51.8469 109.953C 52.6014 110.579 53.5654 110.871 54.8228 110.871C 55.8706 110.871 56.8765 110.621 57.7986 110.078C 58.1339 109.869 58.3854 109.744 58.5112 109.577C 58.6369 109.452 58.7207 109.285 58.7207 109.16C 58.7207 109.118 58.7207 109.034 58.7207 108.951L 58.8884 108.826ZM 64.4629 110.913L 69.4087 110.913C 69.5763 110.913 69.702 110.871 69.7859 110.788C 69.8697 110.704 69.9535 110.579 69.9954 110.412L 70.205 110.412L 70.205 113L 69.9954 113C 69.9535 112.791 69.8697 112.666 69.7859 112.624C 69.702 112.541 69.5763 112.499 69.4087 112.499L 61.8223 112.499L 61.8223 112.29C 61.99 112.249 62.1157 112.165 62.1995 112.082C 62.2834 111.998 62.3253 111.873 62.3253 111.706L 62.3253 104.484C 62.3253 104.317 62.2834 104.192 62.1995 104.109C 62.1157 104.025 61.99 103.942 61.8223 103.9L 61.8223 103.691L 64.9658 103.691L 64.9658 103.9C 64.7563 103.942 64.6305 104.025 64.5886 104.109C 64.5048 104.192 64.4629 104.317 64.4629 104.484L 64.4629 110.913ZM 80.4319 104.484L 80.4319 109.16C 80.4319 110.245 80.2223 110.996 79.8032 111.497C 79.1326 112.29 77.8333 112.666 75.9472 112.666C 74.6898 112.666 73.6838 112.457 72.8875 112.082C 72.3426 111.789 71.9654 111.414 71.7558 110.913C 71.5462 110.454 71.4624 109.827 71.4624 109.118L 71.4624 104.443C 71.4624 104.276 71.4205 104.15 71.3367 104.067C 71.2528 103.983 71.1271 103.9 70.9595 103.858L 70.9595 103.649L 74.103 103.649L 74.103 103.858C 73.8934 103.9 73.7677 103.983 73.7257 104.067C 73.6419 104.15 73.6 104.276 73.6 104.443L 73.6 108.7C 73.6 109.201 73.6419 109.577 73.7257 109.827C 73.8096 110.078 73.9772 110.287 74.1868 110.454C 74.6059 110.788 75.2346 110.955 76.0729 110.955C 76.8692 110.955 77.4979 110.788 77.959 110.454C 78.1686 110.287 78.3362 110.078 78.4201 109.827C 78.5039 109.577 78.5458 109.201 78.5458 108.7L 78.5458 104.443C 78.5458 104.276 78.5039 104.15 78.4201 104.067C 78.3362 103.983 78.2105 103.9 78.0428 103.858L 78.0428 103.649L 80.9768 103.649L 80.9768 103.858C 80.7672 103.9 80.6415 103.983 80.5995 104.067C 80.4738 104.192 80.4319 104.317 80.4319 104.484ZM 90.4492 107.74C 90.8683 107.949 91.2036 108.158 91.4132 108.325C 91.7904 108.7 92 109.201 92 109.869C 92 110.746 91.6647 111.414 91.036 111.873C 90.4492 112.29 89.6528 112.499 88.6469 112.499L 82.3599 112.499L 82.3599 112.29C 82.5276 112.249 82.6533 112.165 82.7371 112.082C 82.821 111.998 82.8629 111.873 82.8629 111.706L 82.8629 104.484C 82.8629 104.317 82.821 104.192 82.7371 104.109C 82.6533 104.025 82.5276 103.942 82.3599 103.9L 82.3599 103.691L 88.5631 103.691C 89.6528 103.691 90.4492 103.9 90.9522 104.276C 91.497 104.693 91.7485 105.236 91.7485 105.945C 91.7485 106.363 91.6647 106.697 91.4551 106.989C 91.2456 107.239 90.9103 107.49 90.4492 107.74ZM 84.9585 106.989L 88.1859 106.989C 88.6888 106.989 89.0661 106.905 89.2756 106.78C 89.4852 106.655 89.6109 106.446 89.6109 106.112C 89.6109 105.82 89.5271 105.57 89.3175 105.444C 89.108 105.319 88.7308 105.236 88.2278 105.236L 85.0005 105.236L 85.0005 106.989L 84.9585 106.989ZM 84.9585 110.913L 88.2697 110.913C 89.3175 110.913 89.8624 110.537 89.8624 109.744C 89.8624 108.951 89.3175 108.575 88.2697 108.575L 84.9585 108.575L 84.9585 110.913Z"/>
</defs>
</svg>
