<svg width="25" height="24" viewBox="0 0 25 24" xmlns="http://www.w3.org/2000/svg" xmlns:xlink="http://www.w3.org/1999/xlink"><title>OK</title><desc>Created using Figma</desc><use xlink:href="#a" fill="#FFF"/><use xlink:href="#b" transform="translate(10.81 7.81)" fill="#FFF"/><defs><path id="a" fill-rule="evenodd" d="M0 12C0 5.373 5.447 0 12.167 0s12.166 5.373 12.166 12-5.447 12-12.166 12C5.447 24 0 18.627 0 12zm12.158.193c1.795 0 3.253-1.39 3.253-3.096C15.41 7.39 13.954 6 12.16 6c-1.793 0-3.252 1.39-3.252 3.097s1.46 3.096 3.252 3.096zm3.213 1.783c-.587.352-1.225.6-1.887.744l1.818 1.732a.876.876 0 0 1 0 1.282.986.986 0 0 1-1.346 0l-1.788-1.7-1.786 1.7a.976.976 0 0 1-.674.266.975.975 0 0 1-.674-.266.877.877 0 0 1 0-1.282l1.818-1.732a6.268 6.268 0 0 1-1.888-.744.882.882 0 0 1-.3-1.25.98.98 0 0 1 1.315-.287 4.308 4.308 0 0 0 4.38 0 .98.98 0 0 1 1.313.285.882.882 0 0 1-.3 1.25z"/><path id="b" fill-rule="evenodd" d="M1.347 0c.742 0 1.346.575 1.346 1.282 0 .706-.604 1.282-1.346 1.282C.605 2.564 0 1.988 0 1.282 0 .575.605 0 1.347 0z"/></defs></svg>