<svg width="25" height="24" viewBox="0 0 25 24" xmlns="http://www.w3.org/2000/svg" xmlns:xlink="http://www.w3.org/1999/xlink"><title>VK</title><desc>Created using Figma</desc><use xlink:href="#a" fill="#FFF"/><defs><path id="a" fill-rule="evenodd" d="M12.167 0C5.447 0 0 5.373 0 12s5.447 12 12.167 12 12.166-5.373 12.166-12S18.886 0 12.167 0zm.99 15.788c-.12.125-.354.15-.354.15h-.776s-1.71.1-3.218-1.42C7.164 12.86 5.712 9.573 5.712 9.573s-.084-.216.007-.32c.102-.117.38-.125.38-.125l1.855-.01s.174.026.3.115c.103.074.16.21.16.21s.3.735.697 1.4c.775 1.295 1.136 1.578 1.4 1.44.382-.203.267-1.833.267-1.833s.006-.59-.194-.855c-.155-.204-.447-.263-.576-.28-.104-.013.067-.248.29-.353.333-.158.922-.168 1.618-.16.543.005.7.037.91.087.493.114.478.483.445 1.278-.01.237-.022.513-.022.832 0 .072 0 .148-.003.227-.012.407-.025.874.252 1.047.142.088.49.013 1.358-1.415.412-.678.72-1.474.72-1.474s.068-.142.173-.203c.108-.062.253-.043.253-.043l1.95-.012s.588-.068.682.19c.1.267-.22.895-1.016 1.924-.757.976-1.125 1.335-1.092 1.652.025.233.264.443.724.856.96.863 1.215 1.316 1.277 1.424l.01.02c.43.69-.477.744-.477.744l-1.733.023s-.372.073-.862-.254c-.257-.17-.508-.448-.747-.713-.364-.406-.7-.78-.988-.69-.483.148-.47 1.155-.47 1.155s.005.216-.105.33z"/></defs></svg>